<svg xmlns="http://www.w3.org/2000/svg" viewBox="0 0 1200 480"><defs><linearGradient id="b" x2="1" y2="1"><stop stop-color="#e5f4ff"/><stop offset=".6" stop-color="#b9d7ff"/><stop offset="1" stop-color="#efc2e9"/></linearGradient><linearGradient id="chrome" x2=".4" y2="1"><stop stop-color="#fff"/><stop offset=".3" stop-color="#cbe5ff"/><stop offset=".48" stop-color="#5786bd"/><stop offset=".53" stop-color="#eefcff"/><stop offset=".73" stop-color="#91b9ed"/><stop offset="1" stop-color="#e9b2df"/></linearGradient><radialGradient id="bubble" cx=".3" cy=".25"><stop stop-color="#fff" stop-opacity=".95"/><stop offset=".35" stop-color="#e4f9ff" stop-opacity=".5"/><stop offset=".8" stop-color="#7fa9de" stop-opacity=".3"/><stop offset="1" stop-color="#fff" stop-opacity=".9"/></radialGradient></defs><path d="M0 0h1200v480H0z" fill="url(#b)"/><g stroke="#fff" opacity=".55" fill="none"><path d="M450 480 850 270l350 210M550 480l300-210 250 210M650 480l200-210 150 210M750 480l100-210 50 210M850 480V270m-328 172h646M603 399h495M681 358h349M753 320h203"/></g><path d="M908 56c134-45 245 75 145 149s-110 131-48 151 25 100-97 73-135-91-88-141 33-64-27-74-14-110 115-158z" fill="url(#chrome)" stroke="#fff" stroke-width="2"/><path d="M921 91c81-22 151 40 78 83s-138 34-97-2 17-35-17-30 1-39 36-51" fill="#c3d6f5"/><ellipse cx="936" cy="245" rx="225" ry="56" transform="rotate(-22 936 245)" fill="none" stroke="#f9ffff" stroke-width="8"/><ellipse cx="936" cy="245" rx="228" ry="60" transform="rotate(-22 936 245)" fill="none" stroke="#5289c7" stroke-width="2" opacity=".6"/><g fill="url(#bubble)" stroke="#f5ffff"><circle cx="720" cy="121" r="45"/><circle cx="1100" cy="357" r="61"/><circle cx="1110" cy="95" r="20"/><circle cx="665" cy="350" r="23"/></g><g fill="#fff"><path d="m800 40 4 17 16 4-16 4-4 17-4-17-16-4 16-4zm316 159 6 26 24 5-24 6-6 26-6-26-24-6 24-5z"/></g><g fill="#527ab1" opacity=".5"><path d="M608 212h8v8h-8zm16 0h8v8h-8zm16 0h8v8h-8zm-16 16h8v8h-8z"/><text x="970" y="466" font-family="monospace" font-size="15" letter-spacing="8">2 0 0 0</text></g></svg>
